# xmcd
#
# Track frame offsets:
#	150
#	15625
#	34420
#	54227
#	70817
#	97510
#	122192
#	150109
#	159589
#	194601
#	213093
#	229404
#	242641
#	290530
#	306508
#	318879
#	329723
#	340466
#
# Disc length: 4700 seconds
#
# Revision: 0
# Processed by: cddbd v1.5.2PL0 Copyright (c) Steve Scherf et al.
# Submitted via: EZCDAudioConverter 1.3.4.1
#
DISCID=fd125a12
DTITLE=The Sound Of Feeling - Up Into Silence
DYEAR=1967
DGENRE=
TTITLE0=My Favourite Things
TTITLE1=Waltz Without Words
TTITLE2=Who Knows What Love Is?
TTITLE3=Phrases
TTITLE4=Circe Revisited
TTITLE5=Hurdy Gurdy Man
TTITLE6=Hex
TTITLE7=Up Into Silence
TTITLE8=The Time Has Come For Silence
TTITLE9=Along Came Sam
TTITLE10=The Sound Of Silence
TTITLE11=Spleen
TTITLE12=Mixolydian Mode
TTITLE13=Something Big
TTITLE14=Spider Man
TTITLE15=Love Is In The Sun
TTITLE16=Born With The Eagles
TTITLE17=Spring Rain
EXTD=
EXTT0=
EXTT1=
EXTT2=
EXTT3=
EXTT4=
EXTT5=
EXTT6=
EXTT7=
EXTT8=
EXTT9=
EXTT10=
EXTT11=
EXTT12=
EXTT13=
EXTT14=
EXTT15=
EXTT16=
EXTT17=
PLAYORDER=
